<?xml version="1.0" encoding="utf-8"?>
<!-- Generator: Adobe Illustrator 24.0.1, SVG Export Plug-In . SVG Version: 6.00 Build 0)  -->
<svg version="1.1" id="Layer_1" xmlns="http://www.w3.org/2000/svg" xmlns:xlink="http://www.w3.org/1999/xlink" x="0px" y="0px"
	 viewBox="0 0 350 70" style="enable-background:new 0 0 350 70;" xml:space="preserve">
<style type="text/css">
	.st0{fill:#FFFFFF;}
</style>
<circle class="st0" cx="175" cy="35" r="23.5"/>
<g>
	<g>
		<g>
			<defs>
				<path id="SVGID_1_" d="M178.8,26.4c-0.4-0.9-1.3-1.8-2.9-2.8c-1.6-1-2.8-1.5-3.7-1.4c-0.9,0.1-2.3,0.4-4,1.1
					c0.9,1.6,1.7,3.2,2.4,4.9l1.9,4.4l4.2-0.2c0.6,0,1.2-0.5,1.7-1.3c0.6-0.8,0.9-1.6,0.9-2.2C179.3,28,179.2,27.3,178.8,26.4z"/>
			</defs>
			<clipPath id="SVGID_2_">
				<use xlink:href="#SVGID_1_"  style="overflow:visible;"/>
			</clipPath>
			<g style="clip-path:url(#SVGID_2_);">
				<image style="overflow:visible;" width="17" height="16" xlink:href="CD7D9676.png"  transform="matrix(1 0 0 1 165 19)">
				</image>
			</g>
		</g>
	</g>
	<g>
		<g>
			<defs>
				<path id="SVGID_3_" d="M184.7,35.9c-0.6-1.2-2.2-1.6-4.7-1.3l-5.3,3.6l5.2,9.5l3.9-2.6c0.5-0.4,1-1.2,1.4-2.4
					c0.4-1.3,0.6-2.3,0.7-3.1C185.9,38.8,185.5,37.6,184.7,35.9z"/>
			</defs>
			<clipPath id="SVGID_4_">
				<use xlink:href="#SVGID_3_"  style="overflow:visible;"/>
			</clipPath>
			<g style="clip-path:url(#SVGID_4_);">
				<image style="overflow:visible;" width="17" height="18" xlink:href="CD7D967A.png"  transform="matrix(1 0 0 1 172 31)">
				</image>
			</g>
		</g>
	</g>
	<g>
		<g>
			<defs>
				<path id="SVGID_5_" d="M181.5,52.8c2.1-1,6.7-3.4,8.9-5.9c1.8-2,3.9-5.1,3.7-8c-0.1-1-0.5-1.9-0.9-2.8c-0.4-0.9-0.8-1.8-1.5-2.5
					c-0.5-0.5-1.2-0.7-1.8-1c-2-0.8-4-1.4-6.1-2c0.1,0,1.3-2,1.4-2.2c0.5-0.9,0.8-1.8,0.9-2.8c0.3-2.2-0.6-4.5-2.2-5.9
					c-1.6-1.4-3.6-2-5.7-2.6c-2.3-0.7-4.7-1.4-7.1-1.4c-2.2,0-5.7,0.6-6.8,2.8l16,34.5C180.7,53,181.1,52.9,181.5,52.8z M174.9,31.3
					l-3.3,1l-1.5-3.6c-0.6-1.4-1.2-2.7-1.8-4c1.4-0.9,2.4-1.5,3.2-1.7c0.7-0.2,1.7,0,3,0.6c1.2,0.6,2,1.3,2.3,2
					c0.3,0.7,0.4,1.4,0.3,2c-0.1,0.6-0.3,1.3-0.8,2.2C175.8,30.6,175.3,31.2,174.9,31.3z M179.5,36.2c2.6,0.4,4.1,1.1,4.5,2.2
					c0.7,1.6,0.9,2.8,0.8,3.4c-0.2,0.6-0.5,1.4-1.1,2.4c-0.5,1-1.1,1.5-1.7,1.7l-3.9,1.7l-3.8-9.3L179.5,36.2z"/>
			</defs>
			<clipPath id="SVGID_6_">
				<use xlink:href="#SVGID_5_"  style="overflow:visible;"/>
			</clipPath>
			<g style="clip-path:url(#SVGID_6_);">
				<image style="overflow:visible;" width="28" height="27" xlink:href="CD7D967D.png"  transform="matrix(1 0 0 1 169 24)">
				</image>
			</g>
			<g style="clip-path:url(#SVGID_6_);">
				<image style="overflow:visible;" width="26" height="26" xlink:href="CD7D967E.png"  transform="matrix(1 0 0 1 160 14)">
				</image>
			</g>
			<g style="clip-path:url(#SVGID_6_);">
				<image style="overflow:visible;" width="47" height="47" xlink:href="CD7D967C.png"  transform="matrix(1 0 0 1 154 9)">
				</image>
			</g>
		</g>
	</g>
	<g>
		<g>
			<defs>
				<path id="SVGID_7_" d="M155.9,27.2l11.3,24.6c1.9,1,3.5,1.8,5.2,2.4c3.9,0.1,7.4-0.9,10.9-2.1c1-0.6,1.9-1.3,2.8-2
					c-4-1.6-7.5-4.6-9.5-8.9l-11.1-24.2l-6.6,3C157.8,22.4,157,24.9,155.9,27.2z"/>
			</defs>
			<clipPath id="SVGID_8_">
				<use xlink:href="#SVGID_7_"  style="overflow:visible;"/>
			</clipPath>
			<g style="clip-path:url(#SVGID_8_);">
				<image style="overflow:visible;" width="32" height="38" xlink:href="CD7D967B.png"  transform="matrix(1 0 0 1 155 17)">
				</image>
			</g>
		</g>
	</g>
</g>
</svg>
